HIERARCHY
ROOT pelvis
{
  OFFSET 0 100 0
  CHANNELS 6 Xposition Yposition Zposition Zrotation Xrotation Yrotation
  JOINT pelvis_right_femur
  {
    OFFSET -10.78128 -3.44521 -0.5502486
    CHANNELS 3 Zrotation Xrotation Yrotation
    JOINT right_femur_tibia
    {
      OFFSET -0.8047443 -44.0398 -0.1307829
      CHANNELS 3 Zrotation Xrotation Yrotation
      JOINT right_tibia_foot
      {
        OFFSET 3.006224 -47.83518 -5
        CHANNELS 3 Zrotation Xrotation Yrotation
        End Site
        {
          OFFSET 0 -5 15
        }
      }
    }
  }
  JOINT pelvis_left_femur
  {
    OFFSET 10.78128 -3.44521 -0.5502486
    CHANNELS 3 Zrotation Xrotation Yrotation
    JOINT left_femur_tibia
    {
      OFFSET 0.8047443 -44.0398 -0.1307829
      CHANNELS 3 Zrotation Xrotation Yrotation
      JOINT left_tibia_foot
      {
        OFFSET -4.370144 -48.10324 -4.275266
        CHANNELS 3 Zrotation Xrotation Yrotation
        End Site
        {
          OFFSET 0 -5 15
        }
      }
    }
  }
  JOINT pelvis_spine1
  {
    OFFSET 0 6.468898 -3.129235
    CHANNELS 3 Zrotation Xrotation Yrotation
    JOINT spine1
    {
      OFFSET 0 23.15396 4.99043
      CHANNELS 3 Zrotation Xrotation Yrotation
      JOINT spine2
      {
        OFFSET 0 20.79997 -5.064912
        CHANNELS 3 Zrotation Xrotation Yrotation
        JOINT neck
        {
          OFFSET 0 14.38658 9.616178
          CHANNELS 3 Zrotation Xrotation Yrotation
          End Site
          {
            OFFSET 0 20 0
          }
        }
      }
      JOINT right_manubrium
      {
        OFFSET -5.722621 16.35077 3.967754
        CHANNELS 3 Zrotation Xrotation Yrotation
        JOINT right_clavicle
        {
          OFFSET -13.16364 1.694482 -4.693211
          CHANNELS 3 Zrotation Xrotation Yrotation
          JOINT right_humerus
          {
            OFFSET -28.5034 -0.3100689 -2.792744
            CHANNELS 3 Zrotation Xrotation Yrotation
            JOINT right_radius
            {
              OFFSET -25.15693 0.02248979 -1.271978
              CHANNELS 3 Zrotation Xrotation Yrotation
              End Site
              {
                OFFSET -15 0 0
              }
            }
          }
        }
      }
      JOINT left_manubrium
      {
        OFFSET 5.722621 16.35077 3.967754
        CHANNELS 3 Zrotation Xrotation Yrotation
        JOINT left_clavicle
        {
          OFFSET 13.16364 1.694482 -4.693211
          CHANNELS 3 Zrotation Xrotation Yrotation
          JOINT left_humerus
          {
            OFFSET 29.39168 -1.063119 -2.237045
            CHANNELS 3 Zrotation Xrotation Yrotation
            JOINT left_radius
            {
              OFFSET 24.59957 -0.9528479 0.9047498
              CHANNELS 3 Zrotation Xrotation Yrotation
              End Site
              {
                OFFSET 15 -0 -0
              }
            }
          }
        }
      }
    }
  }
}
MOTION
Frames: 11
Frame Time: 0.0416666666667
0 103.5113 0 1.092694 -3.11159 0.900715 0.8586865 -15.00612 4.268336 5.062701e-09 41.34123 -3.138718e-09 -3.195589 -4.698731 -3.958948 -6.651565 8.822252 -16.42172 -5.808022e-09 1.201637 2.556189e-09 0.5982534 -19.88013 20.12016 -3.427533 -1.202534 3.502701 0.7884998 8.54443 -6.609328 1.397306 22.12937 7.279197 3.404438 -20.85238 8.488624 3.982938 -17.9254 10.36107 85.56651 30.43997 -16.31055 9.579446e-11 -7.737451e-11 14.88687 -14.58606 9.000618 8.397706 5.892943 -18.81276 -3.130454 -89.73471 28.97792 17.81486 -9.130324e-10 -5.451976e-10 -17.17123 0.9229933 12.50217 12.99292
0.6243043 103.2353 3.906546 1.14571 -2.924467 1.791279 0.8022957 -16.56977 4.232509 5.384483e-09 41.94266 -3.310224e-09 -3.226613 -4.425961 -4.069539 -6.807411 10.29031 -16.82478 -5.74696e-09 0.3836052 2.885165e-09 0.8404512 -20.53765 20.21513 -3.537638 -1.238669 3.321687 0.8891956 8.500981 -6.799825 1.371515 22.22217 7.426408 3.478989 -21.0842 8.633548 4.129945 -17.77883 10.37694 86.26606 30.7305 -17.01258 1.082887e-10 -8.826039e-11 14.52392 -14.35659 8.96047 8.234907 6.010376 -19.03415 -3.143171 -89.91898 29.16915 17.45073 -9.315222e-10 -5.44174e-10 -17.67771 1.082115 12.66689 12.87247
1.268951 102.9584 7.774348 1.160602 -2.738117 2.708582 0.846681 -18.36965 4.161288 5.509981e-09 41.89598 -3.313628e-09 -3.335182 -4.117828 -4.210252 -6.892655 11.92987 -17.10695 -5.376802e-09 0.2600262 3.276506e-09 0.9802913 -21.08718 20.14772 -3.583889 -1.271623 3.116884 1.015723 8.479126 -7.021826 1.349626 22.27095 7.543 3.542636 -21.28328 8.743486 4.232422 -17.54334 10.38531 86.94637 30.93131 -17.86688 1.211744e-10 -9.964023e-11 13.94147 -14.07886 8.945837 7.989755 6.128632 -19.33757 -3.190941 -89.7972 29.28134 16.82678 -9.095561e-10 -5.140931e-10 -18.39796 1.324082 12.83555 12.62527
1.911003 102.6889 11.62109 1.134735 -2.568995 3.626673 0.9987728 -20.26703 4.06029 5.401147e-09 41.11478 -3.124386e-09 -3.519183 -3.795843 -4.369886 -6.895613 13.61001 -17.22582 -4.700074e-09 0.9227294 3.694921e-09 0.9884969 -21.46038 19.89372 -3.553432 -1.29799 2.902682 1.159434 8.480163 -7.256798 1.334337 22.25827 7.612144 3.585987 -21.42072 8.800679 4.27401 -17.22337 10.38065 87.50559 31.01111 -18.79628 1.332582e-10 -1.105885e-10 13.1607 -13.76643 8.957484 7.670926 6.234884 -19.69875 -3.272784 -89.30926 29.28649 15.95258 -8.434037e-10 -4.550581e-10 -19.28629 1.637626 12.98787 12.25364
2.528453 102.4354 15.47292 1.070002 -2.428536 4.519622 1.262506 -22.24047 3.943328 5.07713e-09 39.64701 -2.762929e-09 -3.782123 -3.474009 -4.55064 -6.826167 15.30417 -17.19698 -3.737735e-09 2.39235 4.116028e-09 0.8646163 -21.66795 19.48118 -3.448555 -1.319148 2.689324 1.319616 8.517548 -7.509493 1.326282 22.21464 7.641004 3.614633 -21.52079 8.815468 4.259636 -16.84922 10.37996 88.06901 30.97845 -19.83828 1.443242e-10 -1.209332e-10 12.21468 -13.44816 9.007618 7.297062 6.333757 -20.13928 -3.391461 -88.60723 29.18671 14.90218 -7.333989e-10 -3.692078e-10 -20.35314 2.01768 13.13659 11.78065
3.109703 102.204 19.34745 0.980958 -2.325446 5.366405 1.594345 -24.03897 3.824249 4.611598e-09 37.68167 -2.304558e-09 -4.081002 -3.182536 -4.723912 -6.699802 16.80693 -17.02077 -2.629098e-09 4.411287 4.463943e-09 0.6322963 -21.67804 18.94671 -3.284968 -1.331965 2.496437 1.474725 8.571981 -7.740692 1.325689 22.11973 7.621079 3.619839 -21.54975 8.778146 4.189896 -16.44669 10.36871 88.44029 30.83864 -20.80662 1.53077e-10 -1.295043e-10 11.20968 -13.14066 9.07542 6.904025 6.407133 -20.57595 -3.526823 -87.6678 28.98238 13.76399 -5.948279e-10 -2.701362e-10 -21.43558 2.414603 13.24753 11.25419
3.646136 101.9998 23.26719 0.874402 -2.260958 6.150353 1.987035 -25.70867 3.715675 4.062547e-09 35.37483 -1.798765e-09 -4.414948 -2.925541 -4.897037 -6.537426 18.15956 -16.74869 -1.412157e-09 6.889279 4.728855e-09 0.3193669 -21.55316 18.35006 -3.078209 -1.340123 2.327656 1.627484 8.655279 -7.96471 1.331123 22.02037 7.573039 3.614545 -21.55411 8.713798 4.083616 -16.05212 10.3689 88.81901 30.62477 -21.77849 1.600379e-10 -1.366306e-10 10.18462 -12.86969 9.171934 6.512587 6.46794 -21.04061 -3.679678 -86.71388 28.70488 12.63178 -4.337257e-10 -1.621731e-10 -22.55681 2.823538 13.34716 10.70723
4.142965 101.8231 27.24817 0.7710127 -2.244432 6.863458 2.389004 -27.00506 3.632548 3.509055e-09 33.04014 -1.321556e-09 -4.738731 -2.741941 -5.046002 -6.361091 19.162 -16.4139 -2.482884e-10 9.497178 4.860344e-09 -0.03105536 -21.30418 17.7764 -2.85566 -1.342189 2.208573 1.756122 8.757804 -8.149659 1.342061 21.93188 7.502734 3.59932 -21.53318 8.630781 3.954259 -15.72341 10.38194 89.15565 30.36501 -22.6167 1.641892e-10 -1.41142e-10 9.285718 -12.67674 9.286261 6.179322 6.507074 -21.46954 -3.829521 -85.88735 28.39443 11.67137 -2.720853e-10 -6.027606e-11 -23.55985 3.186298 13.42202 10.21789
4.615018 101.6719 31.31559 0.6847871 -2.297126 7.499823 2.787579 -27.76839 3.59034 2.971651e-09 30.87617 -8.987735e-10 -5.041102 -2.676761 -5.165672 -6.179437 19.66542 -16.04395 7.85179e-10 12.15344 4.832628e-09 -0.4039072 -20.94583 17.31106 -2.630487 -1.338231 2.169919 1.849061 8.900434 -8.288146 1.359765 21.9121 7.422746 3.583557 -21.52531 8.548647 3.812532 -15.53887 10.43629 89.64131 30.07378 -23.32384 1.647248e-10 -1.419135e-10 8.634237 -12.63263 9.439209 5.962467 6.528043 -21.87168 -3.972792 -85.49079 28.10256 11.07582 -1.209883e-10 2.93216e-11 -24.39292 3.467509 13.49114 9.85969
5.083498 101.5441 35.48895 0.6255206 -2.427819 8.053482 3.158129 -27.7911 3.583064 2.449606e-09 28.95131 -5.38708e-10 -5.297311 -2.75782 -5.236592 -5.98559 19.49302 -15.61415 1.627983e-09 14.75095 4.620846e-09 -0.7960008 -20.42985 16.96737 -2.405856 -1.323892 2.229143 1.889564 9.07299 -8.348771 1.385564 21.94066 7.320381 3.558148 -21.49733 8.453701 3.65118 -15.5147 10.51982 90.1152 29.74617 -23.76055 1.605119e-10 -1.376872e-10 8.300083 -12.7532 9.620642 5.887212 6.51548 -22.18736 -4.097759 -85.46837 27.83186 10.89285 1.053382e-11 1.02111e-10 -24.94136 3.63203 13.52916 9.661766
5.563946 101.4409 39.79598 0.5851824 -2.647739 8.508891 3.53374 -27.06724 3.598699 1.882288e-09 27.04808 -1.996516e-10 -5.53154 -2.991015 -5.26458 -5.749952 18.62284 -15.07092 2.382454e-09 17.55072 4.207278e-09 -1.247783 -19.69372 16.70191 -2.157277 -1.296407 2.390111 1.880595 9.288234 -8.333585 1.422241 22.0078 7.181019 3.517623 -21.43476 8.330933 3.450991 -15.63863 10.63397 90.56986 29.34893 -23.94936 1.510779e-10 -1.279917e-10 8.240964 -13.04257 9.843985 5.941536 6.465295 -22.43756 -4.216026 -85.75546 27.54855 11.077 1.356592e-10 1.668775e-10 -25.25085 3.696216 13.53379 9.59711
